<mxfile host="app.diagrams.net" modified="2022-02-03T10:52:38.808Z" agent="5.0 (Windows NT 10.0; Win64; x64) AppleWebKit/537.36 (KHTML, like Gecko) Chrome/97.0.4692.99 Safari/537.36" etag="6ab-evy0AZj8lCBpn_2E" version="16.5.3" type="github">
  <diagram name="Page-1" id="74e2e168-ea6b-b213-b513-2b3c1d86103e">
    <mxGraphModel dx="1185" dy="662" grid="1" gridSize="10" guides="1" tooltips="1" connect="1" arrows="1" fold="1" page="1" pageScale="1" pageWidth="1100" pageHeight="850" background="none" math="0" shadow="0">
      <root>
        <mxCell id="0" />
        <mxCell id="1" parent="0" />
        <mxCell id="ldvEXbfRLxS9DlyxYE2S-29" value="" style="rounded=0;whiteSpace=wrap;html=1;" vertex="1" parent="1">
          <mxGeometry x="290" y="40" width="160" height="460" as="geometry" />
        </mxCell>
        <mxCell id="ldvEXbfRLxS9DlyxYE2S-1" value="P치gina principal" style="rounded=0;whiteSpace=wrap;html=1;" vertex="1" parent="1">
          <mxGeometry x="310" y="100" width="120" height="60" as="geometry" />
        </mxCell>
        <mxCell id="ldvEXbfRLxS9DlyxYE2S-2" value="P치gina de torneos activos" style="rounded=0;whiteSpace=wrap;html=1;" vertex="1" parent="1">
          <mxGeometry x="310" y="260" width="120" height="60" as="geometry" />
        </mxCell>
        <mxCell id="ldvEXbfRLxS9DlyxYE2S-21" value="" style="edgeStyle=orthogonalEdgeStyle;rounded=0;orthogonalLoop=1;jettySize=auto;html=1;" edge="1" parent="1" source="ldvEXbfRLxS9DlyxYE2S-3" target="ldvEXbfRLxS9DlyxYE2S-4">
          <mxGeometry relative="1" as="geometry" />
        </mxCell>
        <mxCell id="ldvEXbfRLxS9DlyxYE2S-22" style="endArrow=classic;startArrow=classic;html=1;fontFamily=Helvetica;fontSize=11;fontColor=rgb(0, 0, 0);align=center;strokeColor=rgb(0, 0, 0);edgeStyle=orthogonalEdgeStyle;entryX=0;entryY=0.75;entryDx=0;entryDy=0;" edge="1" parent="1" source="ldvEXbfRLxS9DlyxYE2S-3" target="ldvEXbfRLxS9DlyxYE2S-5">
          <mxGeometry relative="1" as="geometry" />
        </mxCell>
        <mxCell id="ldvEXbfRLxS9DlyxYE2S-23" style="endArrow=classic;startArrow=classic;html=1;fontFamily=Helvetica;fontSize=11;fontColor=rgb(0, 0, 0);align=center;strokeColor=rgb(0, 0, 0);edgeStyle=orthogonalEdgeStyle;entryX=0;entryY=0.25;entryDx=0;entryDy=0;" edge="1" parent="1" source="ldvEXbfRLxS9DlyxYE2S-3" target="ldvEXbfRLxS9DlyxYE2S-6">
          <mxGeometry relative="1" as="geometry" />
        </mxCell>
        <mxCell id="ldvEXbfRLxS9DlyxYE2S-3" value="Detalles del torneo&lt;br&gt;(Activo)" style="rounded=0;whiteSpace=wrap;html=1;" vertex="1" parent="1">
          <mxGeometry x="510" y="260" width="120" height="60" as="geometry" />
        </mxCell>
        <mxCell id="ldvEXbfRLxS9DlyxYE2S-36" style="endArrow=classic;startArrow=classic;html=1;fontFamily=Helvetica;fontSize=11;fontColor=rgb(0, 0, 0);align=center;strokeColor=rgb(0, 0, 0);edgeStyle=orthogonalEdgeStyle;exitX=1;exitY=0.5;exitDx=0;exitDy=0;" edge="1" parent="1" source="ldvEXbfRLxS9DlyxYE2S-4" target="ldvEXbfRLxS9DlyxYE2S-8">
          <mxGeometry relative="1" as="geometry" />
        </mxCell>
        <mxCell id="ldvEXbfRLxS9DlyxYE2S-4" value="Detalles del partido actual" style="rounded=0;whiteSpace=wrap;html=1;" vertex="1" parent="1">
          <mxGeometry x="710" y="260" width="120" height="60" as="geometry" />
        </mxCell>
        <mxCell id="ldvEXbfRLxS9DlyxYE2S-34" style="endArrow=classic;startArrow=classic;html=1;fontFamily=Helvetica;fontSize=11;fontColor=rgb(0, 0, 0);align=center;strokeColor=rgb(0, 0, 0);edgeStyle=orthogonalEdgeStyle;exitX=1;exitY=0.5;exitDx=0;exitDy=0;" edge="1" parent="1" source="ldvEXbfRLxS9DlyxYE2S-5" target="ldvEXbfRLxS9DlyxYE2S-8">
          <mxGeometry relative="1" as="geometry" />
        </mxCell>
        <mxCell id="ldvEXbfRLxS9DlyxYE2S-5" value="Detalles del partido&lt;br&gt;terminado" style="rounded=0;whiteSpace=wrap;html=1;" vertex="1" parent="1">
          <mxGeometry x="710" y="180" width="120" height="60" as="geometry" />
        </mxCell>
        <mxCell id="ldvEXbfRLxS9DlyxYE2S-38" style="endArrow=classic;startArrow=classic;html=1;fontFamily=Helvetica;fontSize=11;fontColor=rgb(0, 0, 0);align=center;strokeColor=rgb(0, 0, 0);edgeStyle=orthogonalEdgeStyle;exitX=1;exitY=0.5;exitDx=0;exitDy=0;" edge="1" parent="1" source="ldvEXbfRLxS9DlyxYE2S-6" target="ldvEXbfRLxS9DlyxYE2S-8">
          <mxGeometry relative="1" as="geometry" />
        </mxCell>
        <mxCell id="ldvEXbfRLxS9DlyxYE2S-6" value="Detalles del partido no comenzado" style="rounded=0;whiteSpace=wrap;html=1;" vertex="1" parent="1">
          <mxGeometry x="710" y="340" width="120" height="60" as="geometry" />
        </mxCell>
        <mxCell id="ldvEXbfRLxS9DlyxYE2S-7" value="Detalles de jugador" style="rounded=0;whiteSpace=wrap;html=1;" vertex="1" parent="1">
          <mxGeometry x="830" y="550" width="120" height="60" as="geometry" />
        </mxCell>
        <mxCell id="ldvEXbfRLxS9DlyxYE2S-8" value="Detalles de equipo" style="rounded=0;whiteSpace=wrap;html=1;" vertex="1" parent="1">
          <mxGeometry x="830" y="450" width="120" height="60" as="geometry" />
        </mxCell>
        <mxCell id="ldvEXbfRLxS9DlyxYE2S-19" style="endArrow=classic;startArrow=classic;html=1;fontFamily=Helvetica;fontSize=11;fontColor=rgb(0, 0, 0);align=center;strokeColor=rgb(0, 0, 0);edgeStyle=orthogonalEdgeStyle;" edge="1" parent="1" source="ldvEXbfRLxS9DlyxYE2S-10" target="ldvEXbfRLxS9DlyxYE2S-16">
          <mxGeometry relative="1" as="geometry" />
        </mxCell>
        <mxCell id="ldvEXbfRLxS9DlyxYE2S-10" value="P치gina de torneos terminados" style="rounded=0;whiteSpace=wrap;html=1;" vertex="1" parent="1">
          <mxGeometry x="310" y="180" width="120" height="60" as="geometry" />
        </mxCell>
        <mxCell id="ldvEXbfRLxS9DlyxYE2S-11" value="P치gina de torneos no comenzados" style="rounded=0;whiteSpace=wrap;html=1;" vertex="1" parent="1">
          <mxGeometry x="310" y="340" width="120" height="60" as="geometry" />
        </mxCell>
        <mxCell id="ldvEXbfRLxS9DlyxYE2S-12" value="Tienda de merchandising" style="rounded=0;whiteSpace=wrap;html=1;" vertex="1" parent="1">
          <mxGeometry x="310" y="420" width="120" height="60" as="geometry" />
        </mxCell>
        <mxCell id="ldvEXbfRLxS9DlyxYE2S-13" value="Detalles del producto" style="rounded=0;whiteSpace=wrap;html=1;" vertex="1" parent="1">
          <mxGeometry x="510" y="420" width="120" height="60" as="geometry" />
        </mxCell>
        <mxCell id="ldvEXbfRLxS9DlyxYE2S-24" style="edgeStyle=orthogonalEdgeStyle;rounded=0;orthogonalLoop=1;jettySize=auto;html=1;exitX=1;exitY=0.5;exitDx=0;exitDy=0;entryX=0;entryY=0.5;entryDx=0;entryDy=0;" edge="1" parent="1" source="ldvEXbfRLxS9DlyxYE2S-15" target="ldvEXbfRLxS9DlyxYE2S-6">
          <mxGeometry relative="1" as="geometry" />
        </mxCell>
        <mxCell id="ldvEXbfRLxS9DlyxYE2S-15" value="Detalles del torneo (No comenzado)" style="rounded=0;whiteSpace=wrap;html=1;" vertex="1" parent="1">
          <mxGeometry x="510" y="340" width="120" height="60" as="geometry" />
        </mxCell>
        <mxCell id="ldvEXbfRLxS9DlyxYE2S-20" style="endArrow=classic;startArrow=classic;html=1;fontFamily=Helvetica;fontSize=11;fontColor=rgb(0, 0, 0);align=center;strokeColor=rgb(0, 0, 0);edgeStyle=orthogonalEdgeStyle;" edge="1" parent="1" source="ldvEXbfRLxS9DlyxYE2S-16" target="ldvEXbfRLxS9DlyxYE2S-5">
          <mxGeometry relative="1" as="geometry" />
        </mxCell>
        <mxCell id="ldvEXbfRLxS9DlyxYE2S-16" value="Detalles del torneo (Terminado)" style="rounded=0;whiteSpace=wrap;html=1;" vertex="1" parent="1">
          <mxGeometry x="510" y="180" width="120" height="60" as="geometry" />
        </mxCell>
        <mxCell id="ldvEXbfRLxS9DlyxYE2S-17" value="" style="endArrow=classic;startArrow=classic;html=1;fontFamily=Helvetica;fontSize=11;fontColor=rgb(0, 0, 0);align=center;strokeColor=rgb(0, 0, 0);" edge="1" parent="1" source="ldvEXbfRLxS9DlyxYE2S-2" target="ldvEXbfRLxS9DlyxYE2S-3">
          <mxGeometry width="50" height="50" relative="1" as="geometry">
            <mxPoint x="430" y="510" as="sourcePoint" />
            <mxPoint x="480" y="460" as="targetPoint" />
          </mxGeometry>
        </mxCell>
        <mxCell id="ldvEXbfRLxS9DlyxYE2S-18" value="" style="endArrow=classic;startArrow=classic;html=1;fontFamily=Helvetica;fontSize=11;fontColor=rgb(0, 0, 0);align=center;strokeColor=rgb(0, 0, 0);" edge="1" parent="1" source="ldvEXbfRLxS9DlyxYE2S-11" target="ldvEXbfRLxS9DlyxYE2S-15">
          <mxGeometry width="50" height="50" relative="1" as="geometry">
            <mxPoint x="440" y="300" as="sourcePoint" />
            <mxPoint x="520" y="300" as="targetPoint" />
          </mxGeometry>
        </mxCell>
        <mxCell id="ldvEXbfRLxS9DlyxYE2S-25" value="" style="endArrow=classic;startArrow=classic;html=1;fontFamily=Helvetica;fontSize=11;fontColor=rgb(0, 0, 0);align=center;strokeColor=rgb(0, 0, 0);" edge="1" parent="1" source="ldvEXbfRLxS9DlyxYE2S-8" target="ldvEXbfRLxS9DlyxYE2S-7">
          <mxGeometry width="50" height="50" relative="1" as="geometry">
            <mxPoint x="590" y="510" as="sourcePoint" />
            <mxPoint x="690" y="590" as="targetPoint" />
          </mxGeometry>
        </mxCell>
        <mxCell id="ldvEXbfRLxS9DlyxYE2S-26" value="" style="endArrow=classic;html=1;rounded=0;exitX=1;exitY=0.5;exitDx=0;exitDy=0;entryX=0;entryY=0.5;entryDx=0;entryDy=0;" edge="1" parent="1" source="ldvEXbfRLxS9DlyxYE2S-12" target="ldvEXbfRLxS9DlyxYE2S-13">
          <mxGeometry width="50" height="50" relative="1" as="geometry">
            <mxPoint x="450" y="495" as="sourcePoint" />
            <mxPoint x="500" y="445" as="targetPoint" />
          </mxGeometry>
        </mxCell>
        <mxCell id="ldvEXbfRLxS9DlyxYE2S-32" value="SECCIONES" style="rounded=0;whiteSpace=wrap;html=1;" vertex="1" parent="1">
          <mxGeometry x="310" y="50" width="120" height="30" as="geometry" />
        </mxCell>
        <mxCell id="ldvEXbfRLxS9DlyxYE2S-39" value="" style="endArrow=classic;startArrow=classic;html=1;rounded=0;exitX=1;exitY=0.5;exitDx=0;exitDy=0;entryX=0;entryY=0.5;entryDx=0;entryDy=0;" edge="1" parent="1" source="ldvEXbfRLxS9DlyxYE2S-12" target="ldvEXbfRLxS9DlyxYE2S-13">
          <mxGeometry width="50" height="50" relative="1" as="geometry">
            <mxPoint x="520" y="420" as="sourcePoint" />
            <mxPoint x="570" y="370" as="targetPoint" />
          </mxGeometry>
        </mxCell>
        <mxCell id="ldvEXbfRLxS9DlyxYE2S-42" value="" style="endArrow=classic;startArrow=classic;html=1;rounded=0;entryX=1;entryY=0.5;entryDx=0;entryDy=0;" edge="1" parent="1" source="ldvEXbfRLxS9DlyxYE2S-4" target="ldvEXbfRLxS9DlyxYE2S-3">
          <mxGeometry width="50" height="50" relative="1" as="geometry">
            <mxPoint x="639.2893218813452" y="340" as="sourcePoint" />
            <mxPoint x="639.2893218813452" y="290" as="targetPoint" />
          </mxGeometry>
        </mxCell>
      </root>
    </mxGraphModel>
  </diagram>
</mxfile>
